<svg xmlns="http://www.w3.org/2000/svg" xmlns:xlink="http://www.w3.org/1999/xlink" width="76.583" height="76.79" viewBox="0 0 76.583 76.79">
  <defs>
    <clipPath id="clip-path">
      <rect id="Rectangle_48" data-name="Rectangle 48" width="76.583" height="76.79" fill="none"/>
    </clipPath>
  </defs>
  <g id="Group_178" data-name="Group 178" transform="translate(76.583 76.786) rotate(180)">
    <g id="Group_177" data-name="Group 177" transform="translate(0 -0.004)" clip-path="url(#clip-path)">
      <path id="Path_168" data-name="Path 168" d="M33.817.225A39.154,39.154,0,0,1,58.9,5.814c1.427.892,10.562,6.963,6.08,8.3-1.956.585-4.95-3.075-6.811-4.387A35.236,35.236,0,0,0,22.682,7.29c-1.012.508-5.033,2.926-5.394,3.733-.725,1.619,1.148,3.267-1.559,6.149-2.643,2.815-4.815,1.239-5.933,1.775-1.324.635-4.2,7.755-4.678,9.454C-4.044,61.209,33.083,86.3,60.255,65.337c1.461-1.127,3.121-4.17,5.318-2.493,2.667,2.036-5.3,7.13-6.952,8.139-31.4,19.17-69.2-12.447-55.869-46.769.758-1.95,3.439-5.782,3.778-7.181.5-2.063-1.679-4.781.981-7.624s5.267-.736,7.3-1.306c.792-.222,2.676-2.022,3.781-2.628A40.607,40.607,0,0,1,33.817.225M11.027,11.547a2.017,2.017,0,0,0-.2,3.682c3.257,1.6,4.259-4.9.2-3.682" transform="translate(0 0.003)" fill="#fff"/>
      <path id="Path_169" data-name="Path 169" d="M177.581,206.883c.38.534,6.465,2.148,7.546,2.262a25.557,25.557,0,0,0,16.1-3.348c1.917-1.125,5.188-4.754,6.943-4.265,4.334,1.208-3.455,6.481-4.827,7.291-7.332,4.327-14.882,4.962-23.051,2.877-1.267-.323-3.463-1.528-4.363-1.588-2.119-.14-3.752,2.327-7.174-.071-3.136-2.2-1.462-4.845-2.208-7.347-.159-.534-1.981-2.373-2.548-3.367-14.044-24.6,9.6-52.2,35.709-41.624,2.179.883,9.743,5.145,9.69,7.6-.1,4.535-6.458-1.715-7.587-2.422-22.361-14.016-48.631,12.075-34.627,34.627,2.914,4.692,2.114,1.857,5.476,2.222a6.188,6.188,0,0,1,5.078,5.014,9.947,9.947,0,0,1-.162,2.138m-3.769-.072c1.843-1.781-1.909-4.909-3.308-2.62a2.126,2.126,0,0,0,3.308,2.62" transform="translate(-150.023 -145.862)" fill="#fff"/>
      <path id="Path_170" data-name="Path 170" d="M334.485,246.764c8.988-1.329,8.46,14.114-1.135,10.938-3.329-1.1-1.723-3.825-6.462-.758-10.357,6.7-8.591,23.157,3.031,27.4,2.276.83,8.8.537,7.19,3.745-1.054,2.1-7.5.083-9.333-.691-14.283-6.048-15.172-25.72-2.141-33.977,1.048-.664,3.071-1.109,3.752-1.707,1.558-1.368,1.248-4.376,5.1-4.945m-.686,7.08a2.125,2.125,0,0,0,3.3-2.621c-1.437-2.36-5.307.638-3.3,2.621" transform="translate(-297.044 -231.569)" fill="#fff"/>
      <path id="Path_171" data-name="Path 171" d="M603.814,449.976h32.532c1.387,0,1.388,3.64,0,3.64H603.814c.891,1.828,6.7,6.013,6.847,7.529a1.841,1.841,0,0,1-2.743,1.8c-2.372-1.108-7.308-8.281-10.043-9.988-.726-.848-.518-1.448,0-2.324.352-.6,9.187-9.429,9.782-9.782,1.893-1.123,3.641.4,2.758,2.29-.817,1.75-5.564,4.7-6.6,6.834" transform="translate(-560.804 -413.482)" fill="#fff"/>
    </g>
  </g>
</svg>

