<svg xmlns="http://www.w3.org/2000/svg" xmlns:xlink="http://www.w3.org/1999/xlink" width="70.427" height="86.976" viewBox="0 0 70.427 86.976">
  <defs>
    <clipPath id="clip-path">
      <rect id="Rectangle_56" data-name="Rectangle 56" width="70.427" height="86.975" fill="none"/>
    </clipPath>
  </defs>
  <g id="Group_194" data-name="Group 194" transform="translate(0 0)">
    <g id="Group_193" data-name="Group 193" transform="translate(0 0)" clip-path="url(#clip-path)">
      <path id="Path_227" data-name="Path 227" d="M17.843,90.856c-.988-3.142.293-6.718-.789-9.793C13.176,75.912,6.84,71.444,3,66.527A14.5,14.5,0,0,1,.556,61.916C-.2,58.25-.106,40.522.383,36.45c.682-5.668,9.183-6.317,10.862-1.191a39.348,39.348,0,0,1,.672,6.383c.19,3.882-.175,7.827-.012,11.711,4.029-4.131,7.07-2.169,10.6,1.1,3.865,4.749,8.952,8.464,12.611,13.387l7.424-7.8c5.122-3.346,9.416-13.551,16.146-6.686.152-3.762-.185-7.579-.011-11.34.075-1.615.189-4.443.411-5.9.873-5.746,10.376-5.864,11.123.338-.544,7.793.7,16.478.007,24.159a12.692,12.692,0,0,1-2.244,5.554c-.794,1.075-5.1,5.34-5.067,1.853.011-1.214,4.34-3.634,4.712-7.778.676-7.554-.528-16.107-.023-23.771-.766-2.905-5.412-2.719-5.926,0-1.025,5.425.209,11.652-.418,17.032-.715,6.131-7.128,10.077-10.995,14.283a1.567,1.567,0,0,1-1.906-.928c-.311-1.67,8.127-7.733,8.482-9.616.578-3.058-2.039-4.356-4.592-3.095-3.927,4.525-10.011,8.877-13.59,13.515a11,11,0,0,0-2.237,5.932V88.071a3.749,3.749,0,0,0,.557.557H50.519v-7.24c0-1.277,4.688-6.363,5.751-6.368,4.275-.021-3.153,6.051-3.153,6.74V90.3a3.713,3.713,0,0,1-.557.557Zm2.228-2.228H33.624a3.791,3.791,0,0,0,.557-.557V73.59a11.006,11.006,0,0,0-2.237-5.932c-3.579-4.637-9.664-8.99-13.59-13.515-2.677-1.385-5.449.335-4.519,3.4.412,1.357,6.652,6.195,7.885,8.083,1.14,1.745-.3,2.771-1.854,1.853-2.746-3.441-7.97-6.713-9.632-10.791-2.008-4.928-.457-12.585-.918-18.018-.487-5.746-5.884-5.317-6.345-1.863-.471,3.535-.465,21.939.274,25.013a7.92,7.92,0,0,0,1.233,2.481c3.721,5.16,11,9.981,14.484,14.85a10.915,10.915,0,0,1,1.11,2.233Z" transform="translate(0 -3.88)" fill="#fff"/>
      <path id="Path_228" data-name="Path 228" d="M24.584,44.326c-.351,1.164-2.289.727-2.575-1.139a78.148,78.148,0,0,1-.039-11.872c.557-7.467,4.93-10.509,12.064-10.956,8.843-.555,18.958-.428,19.877,10.605a84.688,84.688,0,0,1,.024,11.523c-.288,3.243-2.617,2.6-2.617,1.839V30.216A10.017,10.017,0,0,0,48.9,25.207c-3.164-2.944-15.75-2.905-19.6-1.412-2.1.813-4.718,3.794-4.718,6.05Z" transform="translate(-2.657 -2.465)" fill="#fff"/>
      <path id="Path_229" data-name="Path 229" d="M37.112.178C50.5-2.1,50.66,18.241,37.427,16.393c-8.589-1.2-8.734-14.785-.315-16.215m1.5,2.217c-6.575.512-6.92,10.534-.817,11.4,9.3,1.316,8.853-12.024.817-11.4" transform="translate(-3.771 0)" fill="#fff"/>
      <path id="Path_230" data-name="Path 230" d="M30.876,37.429c.219-.7,1.906-1.2,2.355-.1.435,1.064.435,9.142-.175,9.519-.469.291-2.18-.02-2.18-.506,0-1.782-.361-7.755,0-8.912" transform="translate(-3.75 -4.479)" fill="#fff"/>
      <path id="Path_231" data-name="Path 231" d="M49.133,46.34c-.282.923-2.176.735-2.524-.447a38.1,38.1,0,0,1,.169-8.566c.525-1.284,2.355-.315,2.355.1,0,1.811.366,7.711,0,8.912" transform="translate(-5.67 -4.479)" fill="#fff"/>
      <path id="Path_232" data-name="Path 232" d="M69.185,75.02c1.362-.393,1.979.567,1.409,1.793-.431.925-4.313,4.936-4.972,2.344-.189-.744,2.93-3.953,3.563-4.137" transform="translate(-8.011 -9.148)" fill="#fff"/>
    </g>
  </g>
</svg>
