<svg xmlns="http://www.w3.org/2000/svg" xmlns:xlink="http://www.w3.org/1999/xlink" width="79.406" height="82.049" viewBox="0 0 79.406 82.049">
  <defs>
    <clipPath id="clip-path">
      <rect id="Rectangle_57" data-name="Rectangle 57" width="79.406" height="82.049" fill="none"/>
    </clipPath>
  </defs>
  <g id="Group_196" data-name="Group 196" transform="translate(0 0)">
    <g id="Group_195" data-name="Group 195" transform="translate(0 0)" clip-path="url(#clip-path)">
      <path id="Path_233" data-name="Path 233" d="M33.344,53.063c-1.972-.417-.7-3.255-1.428-3.787-.7-.512-3.644-1-4.567-1.853-.773.027-2.082,2.609-3.191,1.795l-8.126-8.063c-1.05-1.214,1.824-2.506,1.754-3.3-.672-.549-1.628-4.421-1.819-4.578-.486-.4-3.26.166-3.563-1,.167-3.479-.4-7.5-.068-10.916.251-2.557,2.349-.817,3.416-1.54a27.664,27.664,0,0,0,1.96-5.088c-.449-.905-2.644-1.611-1.56-3.112l7.4-7.472c2.224-1.476,2.74,1.647,3.988,1.406,1-.193,3.1-1.732,4.38-1.906.952-.935-.941-3.287,1.673-3.543C37-.227,41.025.341,44.505.175c1.147.336.546,2.08.7,2.947.2,1.079,3.926,1.54,4.874,2.435.859.077,1.562-2.525,3.468-1.649l7.9,8.028c.637,1.6-1.935,2.285-1.858,3.132.869.911,1.344,3.933,1.91,4.617.644.777,3.248-.524,3.518,1.177l-.045,11.415c-.386,1.315-2.6.325-3.348.824-.318.213-1.349,4.121-2.034,4.753-.061.683,2.087,1.749,1.991,2.78-.1,1.1-7.231,7.215-8.3,8.649-1.232.8-2.373-1.991-3.206-1.917-.6.623-4.672,1.832-4.83,2.087-.434.7.771,3.609-1.218,3.609H39.994v3.912h7.172c.331,0,.618.816.664,1.16.655,4.862-.524,11.171,0,16.194-.051,1.04-.564,1.092-1.431,1.177-4.937.484-10.651-.4-15.675,0-.842-.028-1.072-.406-1.173-1.173-.645-4.885.519-11.157,0-16.2-.155-.449.606-1.157.929-1.157h6.911V53.063c-1.187-.169-2.945.232-4.042,0M42.6,2.731c-.271-.282-6.822.209-7.82,0a3.8,3.8,0,0,1-1.05,2.992c-.256.192-5.572,2.362-5.923,2.425a3.244,3.244,0,0,1-1.649-.058c-.726-.232-1.19-1.392-1.81-1.072a56.1,56.1,0,0,0-5.2,5.267c-.078.454,1.595,1.353,1.272,3.341-.119.734-.65,1.091-.9,1.713-1.047,2.656-1.12,5.6-4.83,5.211.359,1.916-.493,6.036.039,7.658.276.845,2.1-.206,3.21,1.485.2.3,2.369,5.349,2.432,5.653A3.137,3.137,0,0,1,20.317,39c-.233.725-1.391,1.188-1.071,1.809A56.106,56.106,0,0,0,24.513,46c.257.044,1.587-1.326,2.811-1.272,1.7.942,6.341,1.912,7.134,3.565a8.847,8.847,0,0,1,.319,2.159c.271.282,6.824-.215,7.824,0-.4-4.2,4.769-4.15,7.457-5.721,1.37-.061,2.24,1.2,2.622,1.27s5.484-4.98,5.551-5.362c.064-.358-1.488-1.355-1.279-3.07,1.069-1.476,1.93-6.112,3.451-6.739.748-.308,2.027.036,2.244-.624.53-1.613-.321-5.748.038-7.658-4.282.566-3.806-4.38-5.684-6.972-.407-2.043,1.6-2.418,1.127-3.453a53.208,53.208,0,0,0-5.26-5.2c-.469-.082-1.15,1.537-3.073,1.273-.38-.052-5.32-2.063-5.766-2.326C42.272,4.83,42.8,2.937,42.6,2.731m2.871,56.851H31.909v13.3H45.471Z" transform="translate(0.984 0)" fill="#fff"/>
      <path id="Path_234" data-name="Path 234" d="M23.374,58.435c-1.26-.271-4.507-4.973-5.744-5.21-2.033-.389-5.106.288-7.267-.023C8.848,58.868.365,58.256.02,52.314c-.376-6.475,8.588-7.805,10.343-1.687,1.936.341,7.19-.568,8.7.119,1.176.534,3.789,4.413,4.965,4.945.774.352,3.492-.022,3.648.134v2.609c-1.255-.182-3.148.25-4.3,0M4.39,49.364c-2.289.524-2.385,4.364-.2,5.042,4.725,1.466,5.038-6.149.2-5.042" transform="translate(0.001 3.755)" fill="#fff"/>
      <path id="Path_235" data-name="Path 235" d="M47.823,58.434V55.825c.156-.156,2.874.218,3.648-.134,1.176-.533,3.789-4.411,4.965-4.945,1.513-.687,6.767.223,8.7-.119,2.06-6.751,12-4.173,10.207,2.86-1.258,4.942-8.993,4.811-10.21-.284-2.16.308-5.233-.366-7.265.022-1.031.2-5.079,5.21-5.743,5.21Zm21.57-9.071c-2.289.524-2.385,4.364-.2,5.042,4.7,1.46,5.1-6.164.2-5.042" transform="translate(3.847 3.756)" fill="#fff"/>
      <path id="Path_236" data-name="Path 236" d="M52.127,65.05c1.3.336,4.314,4.937,5.743,5.21,2.026.387,5.1-.281,7.252.016,2.267-6.2,11.128-4.562,10.346,2.207-.639,5.529-9.061,5.87-10.331.374l-8.7-.119-4.96-4.94-3.652-.139V65.05c1.191.2,3.248-.273,4.3,0m20.12,8.515c2.291-2.237-1.1-6.349-3.7-4.088-2.879,2.508,1.129,6.6,3.7,4.088" transform="translate(3.847 5.226)" fill="#fff"/>
      <path id="Path_237" data-name="Path 237" d="M27.678,65.044v2.607H24.026c-.022,0,.046.314-.09.421-1.773,1.414-3.632,4.611-5.765,4.807-2.47.228-5.3-.18-7.807-.028C9.108,78.264,1.016,78.071.1,72.676c-1.145-6.719,8.248-8.793,10.271-2.4,2.193-.252,4.906.282,7.024,0,1.6-.215,5.582-5.23,5.984-5.23ZM4.4,69.019c-3.623.963-1.225,7.281,2.4,4.75,2.442-1.7.567-5.539-2.4-4.75" transform="translate(0 5.232)" fill="#fff"/>
      <path id="Path_238" data-name="Path 238" d="M55.91,60.518c1.023-4.883,8.023-5.555,9.92-.923,2.829,6.913-7.64,10.64-9.819,3.515a19.979,19.979,0,0,1-4.115-.218c-.48-.014-1.143.271-1.856.253a16.952,16.952,0,0,1-2.211-.282c-.1-.1.067-1.926,0-2.345Zm4.887-1.51c-4.258.4-2.4,7.1,1.468,5.128A2.733,2.733,0,0,0,60.8,59.007" transform="translate(3.845 4.542)" fill="#fff"/>
      <path id="Path_239" data-name="Path 239" d="M18.9,60.517h8.085v2.609c-2.655-.412-5.238.027-7.913.041-.5.173-.748,1.291-1.1,1.767-1.761,2.367-5.834,2.79-7.842.545-.315-.353-.119-.657-.175-.734-.144-.194-.6-.182-.913-.758a5.469,5.469,0,0,1,1.689-6.554,5.222,5.222,0,0,1,8.17,3.085M13.63,59c-4.12.442-2.661,6.742,1.252,5.187C17.788,63.032,16.442,58.7,13.63,59" transform="translate(0.688 4.542)" fill="#fff"/>
      <path id="Path_240" data-name="Path 240" d="M25.831,13.6C34.687,4.9,49.745,8.078,54.1,19.7a17.2,17.2,0,0,1-20.6,22.683C20.89,39.14,16.515,22.755,25.831,13.6M43.215,39.328c10.79-3.92,12.743-18.412,3.475-25.252C34.769,5.28,18.9,17.782,24.575,31.5a13.66,13.66,0,0,0,8.2,7.832c-.145-.9.23-2.43-.04-3.218-.242-.7-2.313-.816-2.56-2.134a38.468,38.468,0,0,1,.108-7.181,6.151,6.151,0,0,1,3.535-4.162c-.124-.712-.666-1.123-.864-1.869-1.506-5.675,5.521-9.243,9.087-4.913,1.764,2.144,1.432,4.515.125,6.782A6.037,6.037,0,0,1,45.8,27.225c.142,1.034.167,7.117-.3,7.606-.351.363-1.872.644-2.153,1.1-.4.65.021,2.552-.125,3.393M37.9,16.464c-3.057.186-3.514,4.722-.5,5.333,4.2.851,4.151-5.556.5-5.333m-2.513,18.3a40.954,40.954,0,0,1,0,5.215c0,.6,5.215.6,5.215,0V35.026c0-1.026,2.429-1.57,2.74-2.215.617-1.276.032-5.689-.915-6.911-1.8-2.32-8.646-2.206-9.525,1.164a29.89,29.89,0,0,0-.081,5.834c.264.766,2.4.852,2.566,1.867" transform="translate(1.676 0.695)" fill="#fff"/>
      <path id="Path_241" data-name="Path 241" d="M40.609,65.336c-.485.349-4.279.429-5.042.331-.972-.126-1.053-.993-1.285-.013-.241-.267-.735-.358-.938-.633-.4-.539-.392-6.316,0-6.825.616-.806,5.074-.782,6.166-.642a1.476,1.476,0,0,1,1.434,1.434c.107.834.085,6.049-.332,6.349m-2.288-5.162H35.71v2.872h2.61Z" transform="translate(2.659 4.624)" fill="#fff"/>
    </g>
  </g>
</svg>
